<?xml version="1.0" encoding="utf-8"?>
<!-- Generator: Adobe Illustrator 25.0.0, SVG Export Plug-In . SVG Version: 6.00 Build 0)  -->
<svg version="1.1" id="icon-0" xmlns="http://www.w3.org/2000/svg" xmlns:xlink="http://www.w3.org/1999/xlink" x="0px" y="0px"
	 viewBox="0 0 400 400" style="enable-background:new 0 0 400 400;" xml:space="preserve">
<style type="text/css">
	.st0{fill:#444444;}
	.st1{fill:#FFFFFF;}
	.st2{fill:#7FDBFF;}
	.st3{display:none;fill:none;}
</style>
<rect id="background" x="-120" class="st0" width="640" height="400"/>
<g id="tight-bounds" transform="matrix(1,0,0,1,32,20)">
	<g>
		<g>
			<path class="st1" d="M12.1,90L168,0l155.9,90v180L168,360L12.1,270V90z M15.2,268.2L168,356.4l152.8-88.2V91.8L168,3.6L15.2,91.8
				V268.2z"/>
		</g>
		<g transform="matrix(1,0,0,1,172.8,102.79419578003092)">
			<g>
				<g transform="matrix(1,0,0,1,0,93.00913420715452)">
					<g id="textblocktransform">
						<g>
							<g transform="matrix(1,0,0,1,0,0)">
								<path id="text-0" class="st1" d="M-97.9,0.4h5v33.8h-5V19.6H-115v14.6h-5V0.4h5v14.5h17.1V0.4z M-85.5,17.3L-85.5,17.3
									c0-2.3,0.4-4.5,1.3-6.6c0.9-2.1,2.1-3.9,3.7-5.5c1.6-1.6,3.4-2.9,5.5-3.8c2.1-0.9,4.3-1.4,6.7-1.4l0,0
									c2.4,0,4.6,0.5,6.7,1.4c2.1,0.9,3.9,2.2,5.5,3.8c1.6,1.6,2.9,3.5,3.8,5.5c0.9,2.1,1.3,4.3,1.3,6.6l0,0
									c0,2.4-0.4,4.6-1.3,6.7c-0.9,2.1-2.1,3.9-3.8,5.5c-1.6,1.6-3.4,2.8-5.5,3.7c-2.1,0.9-4.3,1.3-6.7,1.3l0,0
									c-2.4,0-4.6-0.4-6.7-1.3c-2.1-0.9-3.9-2.1-5.5-3.7c-1.6-1.6-2.8-3.4-3.7-5.5C-85.1,22-85.5,19.7-85.5,17.3z M-80.4,17.3
									L-80.4,17.3c0,1.7,0.3,3.4,0.9,4.9c0.6,1.5,1.5,2.8,2.6,4c1.1,1.1,2.4,2,3.9,2.7c1.5,0.6,3.1,1,4.8,1l0,0
									c1.7,0,3.2-0.3,4.7-1c1.5-0.6,2.7-1.5,3.8-2.7c1.1-1.1,2-2.4,2.6-4c0.6-1.5,0.9-3.1,0.9-4.9l0,0c0-1.7-0.3-3.4-1-4.9
									c-0.6-1.5-1.5-2.8-2.6-4c-1.1-1.1-2.4-2-3.9-2.7c-1.5-0.7-3-1-4.7-1l0,0c-1.7,0-3.3,0.3-4.8,1s-2.7,1.6-3.9,2.7
									c-1.1,1.1-2,2.5-2.6,4C-80.1,14-80.4,15.6-80.4,17.3z M-43.6,0.4h9.3c2.5,0,4.7,0.4,6.4,1.3c1.8,0.9,3.2,2.1,4.1,3.7
									c0.9,1.6,1.4,3.5,1.4,5.8l0,0c0,1.3-0.2,2.7-0.6,4c-0.4,1.3-1,2.5-1.9,3.6c-0.9,1.1-2.1,1.9-3.5,2.6c-1.5,0.6-3.2,1-5.3,1
									l0,0h-4.9v12.1h-5V0.4z M-38.6,17.3h4.9c1.2,0,2.3-0.2,3.1-0.6c0.8-0.4,1.5-0.9,2-1.6c0.5-0.7,0.8-1.3,1-2
									c0.2-0.7,0.3-1.3,0.3-1.9l0,0c0-0.6-0.1-1.3-0.3-2c-0.2-0.7-0.5-1.3-1-2c-0.5-0.6-1.1-1.1-1.9-1.5c-0.8-0.4-1.8-0.6-3-0.6
									l0,0h-5.1V17.3z M7.2,27.1l2.1,4.5c-0.5,0.3-1.2,0.8-2.2,1.2c-1,0.5-2.1,0.9-3.4,1.2c-1.3,0.3-2.8,0.5-4.4,0.5l0,0
									c-2.6,0-5-0.5-7.1-1.4c-2.1-0.9-3.9-2.1-5.3-3.7c-1.5-1.6-2.6-3.4-3.4-5.4c-0.8-2-1.2-4.2-1.2-6.5l0,0c0-2.5,0.4-4.9,1.2-7
									c0.8-2.1,2-4,3.5-5.6c1.5-1.6,3.3-2.8,5.3-3.7C-5.6,0.4-3.4,0-1,0l0,0c2.1,0,4,0.3,5.6,0.8c1.7,0.6,3.1,1.2,4.2,2l0,0
									l-2,4.7C6,6.8,4.9,6.2,3.6,5.6C2.3,5.1,0.8,4.8-0.8,4.8l0,0c-1.6,0-3.1,0.3-4.5,0.9C-6.7,6.4-7.9,7.3-9,8.4
									c-1.1,1.1-1.9,2.5-2.5,4c-0.6,1.5-0.9,3.1-0.9,4.9l0,0c0,1.8,0.3,3.5,0.8,5c0.6,1.5,1.4,2.8,2.4,4c1,1.1,2.3,2,3.7,2.6
									s3.1,0.9,4.9,0.9l0,0c1.7,0,3.3-0.3,4.6-0.8C5.3,28.4,6.4,27.8,7.2,27.1L7.2,27.1z M14.7,17.3L14.7,17.3
									c0-2.3,0.4-4.5,1.3-6.6c0.9-2.1,2.1-3.9,3.7-5.5c1.6-1.6,3.4-2.9,5.5-3.8C27.3,0.5,29.5,0,31.9,0l0,0c2.4,0,4.6,0.5,6.7,1.4
									c2.1,0.9,3.9,2.2,5.5,3.8c1.6,1.6,2.9,3.5,3.8,5.5c0.9,2.1,1.3,4.3,1.3,6.6l0,0c0,2.4-0.4,4.6-1.3,6.7
									c-0.9,2.1-2.1,3.9-3.7,5.5c-1.6,1.6-3.4,2.8-5.5,3.7c-2.1,0.9-4.3,1.3-6.7,1.3l0,0c-2.4,0-4.6-0.4-6.7-1.3
									c-2.1-0.9-3.9-2.1-5.5-3.7c-1.6-1.6-2.8-3.4-3.7-5.5C15.1,22,14.7,19.7,14.7,17.3z M19.8,17.3L19.8,17.3
									c0,1.7,0.3,3.4,1,4.9c0.6,1.5,1.5,2.8,2.6,4c1.1,1.1,2.4,2,3.9,2.7c1.5,0.6,3.1,1,4.8,1l0,0c1.7,0,3.2-0.3,4.7-1
									c1.5-0.6,2.7-1.5,3.8-2.7c1.1-1.1,2-2.4,2.6-4c0.6-1.5,0.9-3.1,0.9-4.9l0,0c0-1.7-0.3-3.4-0.9-4.9c-0.6-1.5-1.5-2.8-2.6-4
									c-1.1-1.1-2.4-2-3.9-2.7c-1.5-0.7-3.1-1-4.7-1l0,0c-1.7,0-3.3,0.3-4.8,1c-1.5,0.7-2.7,1.6-3.9,2.7c-1.1,1.1-2,2.5-2.6,4
									C20.1,14,19.8,15.6,19.8,17.3z M56.6,0.4h9.3c1.8,0,3.4,0.2,4.9,0.7c1.5,0.5,2.8,1.2,3.9,2.1c1.1,0.9,1.9,2,2.5,3.3
									c0.6,1.3,0.9,2.9,0.9,4.6l0,0c0,1.3-0.2,2.7-0.6,4c-0.4,1.3-1.1,2.5-2,3.5c-0.9,1.1-2.1,1.9-3.5,2.5c-1.5,0.6-3.3,1-5.4,1
									l0,0h-4.9v12.1h-5V0.4z M61.6,17.3h4.8c1.3,0,2.3-0.2,3.2-0.6c0.9-0.4,1.5-0.9,2-1.5c0.5-0.6,0.8-1.3,1-2
									c0.2-0.7,0.3-1.4,0.3-2l0,0c0-0.6-0.1-1.3-0.3-2c-0.2-0.7-0.5-1.3-1-2c-0.5-0.6-1.1-1.1-1.9-1.5s-1.8-0.6-3-0.6l0,0h-5.1
									V17.3z M66.2,20.3l5.9-0.1l8.7,14h-5.8L66.2,20.3z M87.6,34.2V0.4h22.2v4.8H92.5v9.6h15.3v4.8H92.5v9.8h17.9v4.8H87.6z"/>
							</g>
						</g>
						<g transform="matrix(1,0,0,1,0,42.67757071405494)">
							<g transform="matrix(1,0,0,1,0,0)">
								<path id="text-1" class="st2" d="M-108.1,0.3h2.7l-6.1,12h-2.4l-6.1-12h2.8l3.7,7.4c0.2,0.3,0.3,0.7,0.4,1
									c0.1,0.4,0.2,0.7,0.4,1.1l0,0h0.2c0.1-0.3,0.2-0.7,0.4-1.1c0.1-0.4,0.3-0.7,0.4-1l0,0L-108.1,0.3z M-114,10.6h2.6v7.8h-2.6
									V10.6z M-96.8,0L-96.8,0c1.3,0,2.5,0.2,3.4,0.5c0.9,0.3,1.7,0.8,2.2,1.5c0.6,0.7,1,1.7,1.2,2.9c0.3,1.2,0.4,2.7,0.4,4.5l0,0
									c0,1.8-0.1,3.2-0.4,4.5c-0.3,1.2-0.7,2.2-1.2,2.9c-0.6,0.7-1.3,1.2-2.2,1.5c-0.9,0.3-2.1,0.5-3.4,0.5l0,0
									c-1.3,0-2.5-0.2-3.4-0.5c-0.9-0.3-1.7-0.8-2.2-1.5c-0.6-0.7-1-1.7-1.2-2.9c-0.3-1.2-0.4-2.7-0.4-4.5l0,0
									c0-1.8,0.1-3.3,0.4-4.5s0.7-2.2,1.2-2.9c0.6-0.7,1.3-1.2,2.2-1.5C-99.2,0.2-98.1,0-96.8,0z M-96.8,2.3L-96.8,2.3
									c-1.1,0-2,0.2-2.7,0.7c-0.7,0.4-1.1,1.2-1.4,2.2c-0.3,1-0.4,2.4-0.4,4.3l0,0c0,1.8,0.1,3.2,0.4,4.2c0.3,1,0.7,1.8,1.4,2.2
									s1.6,0.7,2.7,0.7l0,0c1.1,0,2-0.2,2.7-0.7c0.7-0.4,1.1-1.2,1.4-2.2c0.3-1,0.4-2.4,0.4-4.2l0,0c0-1.8-0.1-3.2-0.4-4.3
									c-0.3-1-0.7-1.7-1.4-2.2C-94.7,2.5-95.6,2.3-96.8,2.3z M-75.1,0.3h2.6v11.1c0,1.8-0.2,3.2-0.6,4.2c-0.4,1.1-1.1,1.8-2.1,2.3
									c-1,0.5-2.2,0.7-3.8,0.7l0,0c-1.7,0-3-0.2-4-0.7c-1-0.5-1.7-1.3-2.2-2.3c-0.4-1.1-0.7-2.5-0.7-4.2l0,0V0.3h2.6v11.1
									c0,1.3,0.1,2.3,0.4,3c0.3,0.7,0.7,1.3,1.3,1.6c0.6,0.3,1.4,0.5,2.4,0.5l0,0c1,0,1.8-0.2,2.4-0.5c0.6-0.3,1-0.8,1.3-1.6
									c0.3-0.7,0.4-1.7,0.4-3l0,0V0.3z M-61.9,0.1L-61.9,0.1c1.4,0,2.6,0.2,3.5,0.5c0.9,0.3,1.5,0.8,1.9,1.6
									c0.4,0.8,0.6,1.8,0.6,3.2l0,0c0,1-0.1,1.8-0.3,2.4c-0.2,0.6-0.6,1.2-1.1,1.5c-0.5,0.4-1.1,0.6-2,0.7l0,0v0.1
									c0.3,0.1,0.6,0.2,0.9,0.4c0.3,0.2,0.6,0.5,0.8,0.8c0.3,0.4,0.5,0.8,0.6,1.3l0,0l1.7,5.7H-58l-1.6-5.6
									c-0.2-0.7-0.5-1.1-0.9-1.4c-0.4-0.3-0.8-0.4-1.4-0.4l0,0c-1.1,0-2,0-2.8,0c-0.8,0-1.4,0-2,0c-0.5,0-1,0-1.3,0l0,0l0.1-2.1h6
									c0.9,0,1.5-0.1,2-0.3c0.5-0.2,0.8-0.5,1.1-1c0.2-0.5,0.3-1.1,0.3-2l0,0c0-0.9-0.1-1.5-0.3-2c-0.2-0.5-0.6-0.8-1.1-1
									c-0.5-0.2-1.2-0.3-2-0.3l0,0c-1.5,0-2.7,0-3.8,0c-1.1,0-1.8,0-2.1,0l0,0l-0.4-2c0.7-0.1,1.3-0.1,1.9-0.2
									c0.6,0,1.2-0.1,2-0.1C-63.7,0.1-62.9,0.1-61.9,0.1z M-68.3,0.3h2.6v18h-2.6V0.3z M-42.7,0.3L-42.7,0.3c0.9,0,1.7,0,2.6,0
									c0.9,0,1.7,0,2.6,0c0.9,0,1.7,0.1,2.4,0.1l0,0l-0.1,2h-6.7c-0.6,0-1,0.1-1.3,0.4c-0.3,0.3-0.4,0.7-0.4,1.3l0,0v14.3h-2.6
									V3.6c0-1,0.3-1.9,1-2.4C-44.6,0.6-43.7,0.3-42.7,0.3z M-45.8,10.2v-2h9.6v2H-45.8z M-25.6,0.1L-25.6,0.1
									c1.4,0,2.6,0.2,3.5,0.5c0.9,0.3,1.5,0.8,1.9,1.6c0.4,0.8,0.6,1.8,0.6,3.2l0,0c0,1-0.1,1.8-0.3,2.4c-0.2,0.6-0.6,1.2-1.1,1.5
									c-0.5,0.4-1.1,0.6-1.9,0.7l0,0v0.1c0.3,0.1,0.6,0.2,0.9,0.4c0.3,0.2,0.6,0.5,0.8,0.8c0.3,0.4,0.5,0.8,0.6,1.3l0,0l1.7,5.7
									h-2.8l-1.6-5.6c-0.2-0.7-0.5-1.1-0.9-1.4c-0.4-0.3-0.8-0.4-1.4-0.4l0,0c-1.1,0-2,0-2.8,0c-0.8,0-1.4,0-2,0c-0.5,0-1,0-1.3,0
									l0,0l0.1-2.1h6c0.9,0,1.5-0.1,2-0.3c0.5-0.2,0.8-0.5,1.1-1c0.2-0.5,0.3-1.1,0.3-2l0,0c0-0.9-0.1-1.5-0.3-2
									c-0.2-0.5-0.6-0.8-1.1-1c-0.5-0.2-1.2-0.3-2-0.3l0,0c-1.5,0-2.7,0-3.8,0c-1.1,0-1.8,0-2.1,0l0,0l-0.4-2
									c0.7-0.1,1.3-0.1,1.9-0.2c0.6,0,1.2-0.1,1.9-0.1C-27.5,0.1-26.6,0.1-25.6,0.1z M-32,0.3h2.6v18H-32V0.3z M-11,0.3h2.7
									c0.2,0,0.4,0.1,0.6,0.2C-7.6,0.7-7.5,0.8-7.4,1l0,0l5.7,17.3h-2.7L-8.9,3.9C-9,3.6-9,3.3-9.1,3.1c-0.1-0.3-0.1-0.5-0.2-0.7
									l0,0h-0.7c-0.1,0.2-0.1,0.5-0.2,0.7c-0.1,0.3-0.1,0.5-0.2,0.8l0,0L-15,18.4h-2.7L-12,1c0.1-0.2,0.2-0.4,0.4-0.5
									C-11.5,0.4-11.3,0.3-11,0.3L-11,0.3z M-14.3,10.7h9.2v2.2h-9.2V10.7z M15.2,0.3H18c0.7,0,1,0.4,1,1.1l0,0l0.7,17h-2.6
									L16.6,2.5h-0.5l-3.8,12.9c-0.1,0.6-0.5,0.9-1.1,0.9l0,0H9c-0.6,0-1-0.3-1.2-0.9l0,0L4,2.5H3.5L2.9,18.4H0.3l0.7-17
									c0-0.7,0.4-1.1,1-1.1l0,0h2.8c0.6,0,0.9,0.3,1.1,0.9l0,0l3.2,10.7c0.1,0.4,0.3,0.8,0.3,1.2c0.1,0.4,0.2,0.8,0.3,1.3l0,0h0.4
									c0.1-0.4,0.2-0.9,0.3-1.3c0.1-0.4,0.2-0.8,0.3-1.3l0,0l3.2-10.6C14.2,0.6,14.6,0.3,15.2,0.3L15.2,0.3z M27.2,0.3L27.2,0.3
									c0.9,0,1.8,0,2.7,0s1.8,0,2.7,0c0.9,0,1.7,0.1,2.5,0.1l0,0l-0.1,2h-7.2c-0.5,0-0.9,0.1-1.2,0.4c-0.2,0.3-0.4,0.7-0.4,1.3
									l0,0v10.5c0,0.6,0.1,1,0.4,1.3c0.2,0.3,0.6,0.4,1.2,0.4l0,0H35l0.1,2c-0.8,0.1-1.6,0.1-2.5,0.1c-0.9,0-1.8,0-2.7,0
									c-0.9,0-1.8,0-2.7,0l0,0c-1.1,0-1.9-0.3-2.6-0.9c-0.6-0.6-1-1.4-1-2.3l0,0V3.5c0-1,0.3-1.8,1-2.4
									C25.3,0.6,26.2,0.3,27.2,0.3z M24.1,9.9v-2H34v2H24.1z M57.8,0.3h2.7L57,17.6c0,0.2-0.2,0.4-0.3,0.5
									c-0.2,0.1-0.4,0.2-0.7,0.2l0,0h-2.8c-0.3,0-0.5-0.1-0.7-0.2c-0.2-0.1-0.3-0.3-0.3-0.6l0,0L49.5,4.4
									c-0.1-0.3-0.1-0.7-0.2-1.1c-0.1-0.4-0.1-0.7-0.2-1l0,0h-0.5c-0.1,0.3-0.1,0.7-0.2,1c-0.1,0.4-0.1,0.7-0.2,1l0,0l-2.6,13.2
									c-0.1,0.2-0.2,0.4-0.4,0.6c-0.2,0.1-0.4,0.2-0.6,0.2l0,0h-2.9c-0.3,0-0.5-0.1-0.7-0.2c-0.2-0.1-0.3-0.3-0.3-0.5l0,0
									L37.1,0.3h2.7l2.6,13.8c0.1,0.3,0.1,0.7,0.2,1.1c0.1,0.4,0.1,0.8,0.2,1.2l0,0h0.6c0.1-0.4,0.1-0.8,0.2-1.2
									c0.1-0.4,0.1-0.8,0.2-1.1l0,0l2.6-12.9c0-0.2,0.1-0.4,0.3-0.6c0.2-0.2,0.4-0.2,0.7-0.2l0,0h2.6c0.3,0,0.5,0.1,0.7,0.2
									c0.2,0.2,0.3,0.4,0.3,0.6l0,0l2.6,12.9c0.1,0.4,0.2,0.8,0.2,1.2c0.1,0.4,0.1,0.8,0.1,1.1l0,0h0.7c0-0.4,0.1-0.8,0.1-1.2
									c0-0.4,0.1-0.8,0.2-1.1l0,0L57.8,0.3z M70.1,0L70.1,0c1.3,0,2.5,0.2,3.4,0.5c0.9,0.3,1.7,0.8,2.2,1.5c0.6,0.7,1,1.7,1.2,2.9
									c0.3,1.2,0.4,2.7,0.4,4.5l0,0c0,1.8-0.1,3.2-0.4,4.5c-0.3,1.2-0.7,2.2-1.2,2.9c-0.6,0.7-1.3,1.2-2.2,1.5
									c-0.9,0.3-2.1,0.5-3.4,0.5l0,0c-1.3,0-2.5-0.2-3.4-0.5c-0.9-0.3-1.7-0.8-2.2-1.5c-0.6-0.7-1-1.7-1.2-2.9
									c-0.3-1.2-0.4-2.7-0.4-4.5l0,0c0-1.8,0.1-3.3,0.4-4.5s0.7-2.2,1.2-2.9c0.6-0.7,1.3-1.2,2.2-1.5C67.6,0.2,68.7,0,70.1,0z
									 M70.1,2.3L70.1,2.3c-1.1,0-2,0.2-2.7,0.7c-0.7,0.4-1.1,1.2-1.4,2.2c-0.3,1-0.4,2.4-0.4,4.3l0,0c0,1.8,0.1,3.2,0.4,4.2
									c0.3,1,0.7,1.8,1.4,2.2c0.7,0.4,1.6,0.7,2.7,0.7l0,0c1.1,0,2-0.2,2.7-0.7c0.7-0.4,1.1-1.2,1.4-2.2s0.4-2.4,0.4-4.2l0,0
									c0-1.8-0.1-3.2-0.4-4.3c-0.3-1-0.7-1.7-1.4-2.2C72.1,2.5,71.2,2.3,70.1,2.3z M87.4,0.1L87.4,0.1c1.4,0,2.6,0.2,3.5,0.5
									c0.9,0.3,1.5,0.8,1.9,1.6c0.4,0.8,0.6,1.8,0.6,3.2l0,0c0,1-0.1,1.8-0.3,2.4c-0.2,0.6-0.6,1.2-1.1,1.5
									c-0.5,0.4-1.1,0.6-2,0.7l0,0v0.1c0.3,0.1,0.6,0.2,0.9,0.4c0.3,0.2,0.6,0.5,0.8,0.8c0.3,0.4,0.5,0.8,0.6,1.3l0,0l1.7,5.7
									h-2.8l-1.6-5.6c-0.2-0.7-0.5-1.1-0.9-1.4c-0.4-0.3-0.8-0.4-1.4-0.4l0,0c-1.1,0-2,0-2.8,0c-0.8,0-1.4,0-2,0c-0.5,0-1,0-1.3,0
									l0,0l0.1-2.1h6c0.9,0,1.5-0.1,2-0.3c0.5-0.2,0.8-0.5,1.1-1c0.2-0.5,0.3-1.1,0.3-2l0,0c0-0.9-0.1-1.5-0.3-2
									c-0.2-0.5-0.6-0.8-1.1-1c-0.5-0.2-1.2-0.3-2-0.3l0,0c-1.5,0-2.7,0-3.8,0c-1.1,0-1.8,0-2.1,0l0,0l-0.4-2
									c0.7-0.1,1.3-0.1,1.9-0.2c0.6,0,1.2-0.1,1.9-0.1C85.6,0.1,86.4,0.1,87.4,0.1z M81,0.3h2.6v18H81V0.3z M107.2,0.3h2.9
									l-5.2,7.4c-0.2,0.2-0.3,0.5-0.5,0.6c-0.2,0.2-0.4,0.4-0.6,0.6l0,0V9c0.2,0.2,0.4,0.4,0.7,0.6c0.2,0.2,0.4,0.4,0.5,0.7l0,0
									l5.4,8.1h-3l-6.3-9.4L107.2,0.3z M97.3,0.3h2.6v5.5c0,0.5,0,1.1-0.1,1.5c-0.1,0.5-0.1,1-0.3,1.5l0,0c0.1,0.5,0.2,1,0.3,1.5
									c0.1,0.5,0.1,1,0.1,1.4l0,0v6.5h-2.6V0.3z M99,8h3.5v2H99V8z"/>
							</g>
						</g>
					</g>
				</g>
				<g transform="matrix(1,0,0,1,72.7708903051465,0)">
					<g>
						<g>
							<g>
								<g>
									<path class="st2" d="M-62.8,44.9c-0.8,0-1.7-0.4-2.3-1.1c-1.1-1.2-0.8-3.1,0.2-4.2l3.7-3.7c0.4-0.4,0.4-0.8,0-1.2l-3.7-3.7
										c-1.1-1.1-1.3-2.9-0.4-4.1c1.2-1.4,3.2-1.4,4.4-0.2l6.6,6.6c0.6,0.6,0.8,1.3,0.8,2.2c0,0.8-0.4,1.6-0.8,2.2l-6.6,6.6
										C-61.3,44.7-62,44.9-62.8,44.9z"/>
								</g>
								<g>
									<path class="st2" d="M-92.4,44.9c-0.7,0-1.6-0.2-2.2-0.8l-6.5-6.5c-0.6-0.6-0.8-1.3-0.8-2.2c0-0.8,0.4-1.6,0.8-2.2l6.5-6.5
										c1.1-1.1,2.9-1.3,4.1-0.4c1.4,1.2,1.4,3.2,0.2,4.4l-3.8,3.8c-0.4,0.4-0.4,0.8,0,1.2l3.7,3.7c1.1,1.1,1.3,3,0.2,4.2
										C-90.7,44.6-91.6,44.9-92.4,44.9z"/>
								</g>
							</g>
							<g>
								<path class="st2" d="M-81.5,49.5c-0.4,0-0.7,0-1-0.1c-1.6-0.6-2.4-2.3-1.8-3.8l7.9-22c0.6-1.6,2.3-2.4,3.8-1.8
									s2.4,2.3,1.8,3.8l-7.9,22C-79.1,48.6-80.3,49.5-81.5,49.5z"/>
							</g>
							<g>
								<path class="st2" d="M-37.2,0H-118c-1.1,0-2,1-2,2v80.8c0,1.1,1,2,2,2h80.8c1.1,0,2-1,2-2V2C-35.1,1-36.1,0-37.2,0z
									 M-90.7,4.8c1.4,0,2.5,1.1,2.5,2.5s-1.1,2.5-2.5,2.5s-2.5-1.1-2.5-2.5S-92.2,4.8-90.7,4.8z M-101.4,4.8
									c1.4,0,2.5,1.1,2.5,2.5s-1.1,2.5-2.5,2.5c-1.3,0-2.5-1.1-2.5-2.5S-102.7,4.8-101.4,4.8z M-111.9,4.8c1.4,0,2.5,1.1,2.5,2.5
									s-1.1,2.5-2.5,2.5c-1.4,0-2.5-1.1-2.5-2.5S-113.3,4.8-111.9,4.8z M-114,76.9V19.1c0-1.1,1-2,2-2h68.8c1.1,0,2,1,2,2v35.3
									c-0.1,0-0.1-0.1-0.2-0.1c-0.5-0.1-0.7-0.6-0.7-1v-4.2c0-0.6-0.5-1.1-1.1-1.1h-6.9c-0.6,0-1.1,0.5-1.1,1.1v4.2
									c0,0.5-0.4,0.8-0.7,1c-1,0.2-1.8,0.7-2.6,1.1c-0.4,0.2-1,0.1-1.2-0.1l-2.7-2.6c-0.7-0.7-1.3-0.7-1.8-0.2l-4.9,4.9
									c-0.5,0.5-0.5,1.1,0,1.6l2.9,2.9c0.4,0.4,0.4,0.8,0.2,1.2c-0.5,0.8-0.8,1.8-1.1,2.6c-0.1,0.5-0.6,0.8-1.1,0.8h-4.2
									c-0.6,0-1.1,0.5-1.1,1.1v6.9c0,0.6,0.5,1.1,1.1,1.1h4.2c0.5,0,0.8,0.4,1,0.7c0.1,0.5,0.4,1.1,0.6,1.6
									c0.2,0.6-0.2,1.3-0.8,1.3H-112C-113.1,78.9-114,77.9-114,76.9z M-43.1,78.9h-10c-0.4,0-0.7-0.1-1-0.4
									c-2.3-2.3-3.6-5.6-3.1-9.2c0.6-4.7,4.4-8.5,9.1-9.2c2.6-0.4,5.1,0.1,7.2,1.4v15.3C-41.1,77.9-42.1,78.9-43.1,78.9z"/>
							</g>
						</g>
					</g>
				</g>
			</g>
		</g>
	</g>
	<rect x="-120" class="st3" width="576" height="360"/>
</g>
</svg>
